<svg style="height: 512px; width: 512px;" xmlns="http://www.w3.org/2000/svg" viewBox="0 0 512 512"><path d="M0 0h512v512H0z" fill="#000" fill-opacity="0"></path><g class="" style="" transform="translate(0,0)"><g><path d="M255.563 19.75C242.253 77.572 238.938 120.436 241.656 176.688L260.469 176.718C263.779 127.102 279.029 88.1 306.343 43.718C301.483 34.584 292.878 28.762 282.53 24.938C273.622 21.645 263.71 20.168 255.563 19.75Z" class="" fill="#3a200b" fill-opacity="1"></path><path d="M354.313 113.906C345.246 114.039 335.897 115.11 326.313 117.219C312.553 120.245 299.137 125.171 286.343 131.779C282.438 146.394 279.997 161.623 278.937 178.374C280.187 178.158 281.447 177.942 282.687 177.686C307.652 172.551 325.975 160.442 335.031 145.436C334.733 165.379 309.911 186.611 278.221 195.406C275.696 196.106 273.135 196.746 270.531 197.28C226.241 206.394 185.261 188.965 170.689 161.937C166.323 153.84 165.513 145.501 167.595 137.594C177.429 155.574 198.228 169.128 222.845 175.75C222.097 159.504 221.871 144.235 222.22 129.344C211.216 124.466 199.84 120.796 188.25 118.469C177.07 116.223 166.206 115.055 156.156 115.405C84.399 117.901 23.196 180.29 24.376 270.093C25.73 373.264 101.85 472.424 190 490.124C201.178 492.37 214.934 493.544 227.22 492.406C239.503 491.268 249.995 487.644 255.625 482.25L261.595 476.53L268 481.78C273.378 486.206 284.542 489.83 297.125 491C309.708 492.17 323.639 491.195 334.469 488.812C422.002 469.555 487.516 369.732 486.155 266.094C485.478 214.479 466.801 172.488 437.935 145.874C416.288 125.914 388.981 114.366 358.187 113.906C356.903 113.886 355.607 113.886 354.312 113.906Z" class="" fill="#e40303" fill-opacity="1"></path><path d="M404.219 155.031C457.909 187.509 479.576 270.261 441.311 355.657C410.831 423.674 348.131 476.913 300.468 474.407C411.304 407.96 458.192 271.063 404.22 155.03Z" class="selected" fill="#ffffff" fill-opacity="1"></path></g></g></svg>